{"ts":"2026-07-22T02:16:48.5332657+00:00","projectId":"TellTaleHeartV7","op":"S01 xfade","args":"-hide_banner -loglevel info -progress pipe:1 -nostats -y -i \u0022C:\\Users\\budcr\\source\\repos\\FilmStudio\\projects\\TellTaleHeartV7\\assets\\video\\scene_01_clip_01.mp4\u0022 -i \u0022C:\\Users\\budcr\\source\\repos\\FilmStudio\\projects\\TellTaleHeartV7\\assets\\video\\scene_01_clip_02.mp4\u0022 -filter_complex \u0022[0:v][1:v]concat=n=2:v=1:a=0[v];[0:a][1:a]acrossfade=d=0.1:c1=tri:c2=tri[a]\u0022 -map \u0022[v]\u0022 -map \u0022[a]\u0022 -c:v libx264 -preset veryfast -crf 20 -c:a aac -b:a 160k -movflags \u002Bfaststart \u0022C:\\Users\\budcr\\source\\repos\\FilmStudio\\projects\\TellTaleHeartV7\\assets\\video\\scene_01.mp4\u0022","output":"C:\\Users\\budcr\\source\\repos\\FilmStudio\\projects\\TellTaleHeartV7\\assets\\video\\scene_01.mp4","exitCode":0,"timedOut":false,"wallMs":1125,"ffmpegPath":"C:\\Users\\budcr\\source\\repos\\FilmStudio\\host\\FilmStudio.Api\\bin\\Debug\\net10.0\\Resources\\ffmpeg.exe","scene":1,"includedCount":2,"excludedCount":0,"progress":["out_time=00:00:03.500000","out_time=00:00:08.584263"],"stats":{"lastTime":"out_time=00:00:08.584263","lastSpeed":"speed= 9.1x"},"ok":true}
{"ts":"2026-07-22T02:48:40.8550119+00:00","projectId":"TellTaleHeartV7","op":"S01 xfade","args":"-hide_banner -loglevel info -progress pipe:1 -nostats -y -i \u0022C:\\Users\\budcr\\source\\repos\\FilmStudio\\projects\\TellTaleHeartV7\\assets\\video\\scene_01_clip_01.mp4\u0022 -i \u0022C:\\Users\\budcr\\source\\repos\\FilmStudio\\projects\\TellTaleHeartV7\\assets\\video\\scene_01_clip_02.mp4\u0022 -filter_complex \u0022[0:v][1:v]concat=n=2:v=1:a=0[v];[0:a][1:a]acrossfade=d=0.1:c1=tri:c2=tri[a]\u0022 -map \u0022[v]\u0022 -map \u0022[a]\u0022 -c:v libx264 -preset veryfast -crf 20 -c:a aac -b:a 160k -movflags \u002Bfaststart \u0022C:\\Users\\budcr\\source\\repos\\FilmStudio\\projects\\TellTaleHeartV7\\assets\\video\\scene_01.mp4\u0022","output":"C:\\Users\\budcr\\source\\repos\\FilmStudio\\projects\\TellTaleHeartV7\\assets\\video\\scene_01.mp4","exitCode":0,"timedOut":false,"wallMs":1016,"ffmpegPath":"C:\\Users\\budcr\\source\\repos\\FilmStudio\\host\\FilmStudio.Api\\bin\\Debug\\net10.0\\Resources\\ffmpeg.exe","scene":1,"includedCount":2,"excludedCount":0,"progress":["out_time=00:00:04.083333","out_time=00:00:08.468163"],"stats":{"lastTime":"out_time=00:00:08.468163","lastSpeed":"speed=9.84x"},"ok":true}
{"ts":"2026-07-22T03:05:48.8706038+00:00","projectId":"TellTaleHeartV7","op":"S01 xfade","args":"-hide_banner -loglevel info -progress pipe:1 -nostats -y -i \u0022C:\\Users\\budcr\\source\\repos\\FilmStudio\\projects\\TellTaleHeartV7\\assets\\video\\scene_01_clip_01.mp4\u0022 -i \u0022C:\\Users\\budcr\\source\\repos\\FilmStudio\\projects\\TellTaleHeartV7\\assets\\video\\scene_01_clip_02.mp4\u0022 -filter_complex \u0022[0:v][1:v]concat=n=2:v=1:a=0[v];[0:a][1:a]acrossfade=d=0.1:c1=tri:c2=tri[a]\u0022 -map \u0022[v]\u0022 -map \u0022[a]\u0022 -c:v libx264 -preset veryfast -crf 20 -c:a aac -b:a 160k -movflags \u002Bfaststart \u0022C:\\Users\\budcr\\source\\repos\\FilmStudio\\projects\\TellTaleHeartV7\\assets\\video\\scene_01.mp4\u0022","output":"C:\\Users\\budcr\\source\\repos\\FilmStudio\\projects\\TellTaleHeartV7\\assets\\video\\scene_01.mp4","exitCode":0,"timedOut":false,"wallMs":1123,"ffmpegPath":"C:\\Users\\budcr\\source\\repos\\FilmStudio\\host\\FilmStudio.Api\\bin\\Debug\\net10.0\\Resources\\ffmpeg.exe","scene":1,"includedCount":2,"excludedCount":0,"progress":["out_time=00:00:03.750000","out_time=00:00:09.791701"],"stats":{"lastTime":"out_time=00:00:09.791701","lastSpeed":"speed=10.1x"},"ok":true}
{"ts":"2026-07-22T03:12:24.1295455+00:00","projectId":"TellTaleHeartV7","op":"S01 xfade","args":"-hide_banner -loglevel info -progress pipe:1 -nostats -y -i \u0022C:\\Users\\budcr\\source\\repos\\FilmStudio\\projects\\TellTaleHeartV7\\assets\\video\\scene_01_clip_01.mp4\u0022 -i \u0022C:\\Users\\budcr\\source\\repos\\FilmStudio\\projects\\TellTaleHeartV7\\assets\\video\\scene_01_clip_02.mp4\u0022 -i \u0022C:\\Users\\budcr\\source\\repos\\FilmStudio\\projects\\TellTaleHeartV7\\assets\\video\\scene_01_clip_03.mp4\u0022 -filter_complex \u0022[0:v][1:v][2:v]concat=n=3:v=1:a=0[v];[0:a][1:a]acrossfade=d=0.1:c1=tri:c2=tri[ax1];[ax1][2:a]acrossfade=d=0.1:c1=tri:c2=tri[a]\u0022 -map \u0022[v]\u0022 -map \u0022[a]\u0022 -c:v libx264 -preset veryfast -crf 20 -c:a aac -b:a 160k -movflags \u002Bfaststart \u0022C:\\Users\\budcr\\source\\repos\\FilmStudio\\projects\\TellTaleHeartV7\\assets\\video\\scene_01.mp4\u0022","output":"C:\\Users\\budcr\\source\\repos\\FilmStudio\\projects\\TellTaleHeartV7\\assets\\video\\scene_01.mp4","exitCode":0,"timedOut":false,"wallMs":1555,"ffmpegPath":"C:\\Users\\budcr\\source\\repos\\FilmStudio\\host\\FilmStudio.Api\\bin\\Debug\\net10.0\\Resources\\ffmpeg.exe","scene":1,"includedCount":3,"excludedCount":0,"progress":["out_time=00:00:03.916667","out_time=00:00:15.612789"],"stats":{"lastTime":"out_time=00:00:15.612789","lastSpeed":"speed=11.4x"},"ok":true}
{"ts":"2026-07-22T03:12:41.2940076+00:00","projectId":"TellTaleHeartV7","op":"WIP copy","args":"-hide_banner -loglevel info -progress pipe:1 -nostats -y -f concat -safe 0 -i \u0022C:\\Users\\budcr\\source\\repos\\FilmStudio\\projects\\TellTaleHeartV7\\assets\\video\\_concat_WIP.txt\u0022 -c copy \u0022C:\\Users\\budcr\\source\\repos\\FilmStudio\\projects\\TellTaleHeartV7\\assets\\movie_wip.mp4\u0022","output":"C:\\Users\\budcr\\source\\repos\\FilmStudio\\projects\\TellTaleHeartV7\\assets\\movie_wip.mp4","exitCode":0,"timedOut":false,"wallMs":119,"ffmpegPath":"C:\\Users\\budcr\\source\\repos\\FilmStudio\\host\\FilmStudio.Api\\bin\\Debug\\net10.0\\Resources\\ffmpeg.exe","progress":["out_time=00:00:15.636009","frame=  382 fps=0.0 q=-1.0 Lsize=    2449KiB time=00:00:15.63 bitrate=1283.3kbits/s speed=1.24e\u002B03x elapsed=0:00:00.01"],"stats":{"lastTime":"frame=  382 fps=0.0 q=-1.0 Lsize=    2449KiB time=00:00:15.63 bitrate=1283.3kbits/s speed=1.24e\u002B03x elapsed=0:00:00.01","lastSpeed":"speed=1.24e\u002B03x"},"ok":true}
{"ts":"2026-07-22T14:08:59.1723659+00:00","projectId":"TellTaleHeartV7","op":"S01 xfade","args":"-hide_banner -loglevel info -progress pipe:1 -nostats -y -i \u0022C:\\Users\\budcr\\source\\repos\\FilmStudio\\projects\\TellTaleHeartV7\\assets\\video\\scene_01_clip_01.mp4\u0022 -i \u0022C:\\Users\\budcr\\source\\repos\\FilmStudio\\projects\\TellTaleHeartV7\\assets\\video\\scene_01_clip_02.mp4\u0022 -i \u0022C:\\Users\\budcr\\source\\repos\\FilmStudio\\projects\\TellTaleHeartV7\\assets\\video\\scene_01_clip_03.mp4\u0022 -filter_complex \u0022[0:v][1:v][2:v]concat=n=3:v=1:a=0[v];[0:a][1:a]acrossfade=d=0.1:c1=tri:c2=tri[ax1];[ax1][2:a]acrossfade=d=0.1:c1=tri:c2=tri[a]\u0022 -map \u0022[v]\u0022 -map \u0022[a]\u0022 -c:v libx264 -preset veryfast -crf 20 -c:a aac -b:a 160k -movflags \u002Bfaststart \u0022C:\\Users\\budcr\\source\\repos\\FilmStudio\\projects\\TellTaleHeartV7\\assets\\video\\scene_01.mp4\u0022","output":"C:\\Users\\budcr\\source\\repos\\FilmStudio\\projects\\TellTaleHeartV7\\assets\\video\\scene_01.mp4","exitCode":0,"timedOut":false,"wallMs":1556,"ffmpegPath":"C:\\Users\\budcr\\source\\repos\\FilmStudio\\host\\FilmStudio.Api\\bin\\Debug\\net10.0\\Resources\\ffmpeg.exe","scene":1,"includedCount":3,"excludedCount":0,"progress":["out_time=00:00:03.833333","out_time=00:00:16.332608"],"stats":{"lastTime":"out_time=00:00:16.332608","lastSpeed":"speed=11.9x"},"ok":true}
{"ts":"2026-07-22T14:57:34.9079915+00:00","projectId":"TellTaleHeartV7","op":"S01 xfade","args":"-hide_banner -loglevel info -progress pipe:1 -nostats -y -i \u0022C:\\Users\\budcr\\source\\repos\\FilmStudio\\projects\\TellTaleHeartV7\\assets\\video\\scene_01_clip_01.mp4\u0022 -i \u0022C:\\Users\\budcr\\source\\repos\\FilmStudio\\projects\\TellTaleHeartV7\\assets\\video\\scene_01_clip_02.mp4\u0022 -i \u0022C:\\Users\\budcr\\source\\repos\\FilmStudio\\projects\\TellTaleHeartV7\\assets\\video\\scene_01_clip_03.mp4\u0022 -i \u0022C:\\Users\\budcr\\source\\repos\\FilmStudio\\projects\\TellTaleHeartV7\\assets\\video\\scene_01_clip_04.mp4\u0022 -i \u0022C:\\Users\\budcr\\source\\repos\\FilmStudio\\projects\\TellTaleHeartV7\\assets\\video\\scene_01_clip_05.mp4\u0022 -i \u0022C:\\Users\\budcr\\source\\repos\\FilmStudio\\projects\\TellTaleHeartV7\\assets\\video\\scene_01_clip_06.mp4\u0022 -i \u0022C:\\Users\\budcr\\source\\repos\\FilmStudio\\projects\\TellTaleHeartV7\\assets\\video\\scene_01_clip_07.mp4\u0022 -i \u0022C:\\Users\\budcr\\source\\repos\\FilmStudio\\projects\\TellTaleHeartV7\\assets\\video\\scene_01_clip_08.mp4\u0022 -i \u0022C:\\Users\\budcr\\source\\repos\\FilmStudio\\projects\\TellTaleHeartV7\\assets\\video\\scene_01_clip_09.mp4\u0022 -i \u0022C:\\Users\\budcr\\source\\repos\\FilmStudio\\projects\\TellTaleHeartV7\\assets\\video\\scene_01_clip_10.mp4\u0022 -i \u0022C:\\Users\\budcr\\source\\repos\\FilmStudio\\projects\\TellTaleHeartV7\\assets\\video\\scene_01_clip_11.mp4\u0022 -i \u0022C:\\Users\\budcr\\source\\repos\\FilmStudio\\projects\\TellTaleHeartV7\\assets\\video\\scene_01_clip_12.mp4\u0022 -i \u0022C:\\Users\\budcr\\source\\repos\\FilmStudio\\projects\\TellTaleHeartV7\\assets\\video\\scene_01_clip_13.mp4\u0022 -filter_complex \u0022[0:v][1:v][2:v][3:v][4:v][5:v][6:v][7:v][8:v][9:v][10:v][11:v][12:v]concat=n=13:v=1:a=0[v];[0:a][1:a]acrossfade=d=0.1:c1=tri:c2=tri[ax1];[ax1][2:a]acrossfade=d=0.1:c1=tri:c2=tri[ax2];[ax2][3:a]acrossfade=d=0.1:c1=tri:c2=tri[ax3];[ax3][4:a]acrossfade=d=0.1:c1=tri:c2=tri[ax4];[ax4][5:a]acrossfade=d=0.1:c1=tri:c2=tri[ax5];[ax5][6:a]acrossfade=d=0.1:c1=tri:c2=tri[ax6];[ax6][7:a]acrossfade=d=0.1:c1=tri:c2=tri[ax7];[ax7][8:a]acrossfade=d=0.1:c1=tri:c2=tri[ax8];[ax8][9:a]acrossfade=d=0.1:c1=tri:c2=tri[ax9];[ax9][10:a]acrossfade=d=0.1:c1=tri:c2=tri[ax10];[ax10][11:a]acrossfade=d=0.1:c1=tri:c2=tri[ax11];[ax11][12:a]acrossfade=d=0.1:c1=tri:c2=tri[a]\u0022 -map \u0022[v]\u0022 -map \u0022[a]\u0022 -c:v libx264 -preset veryfast -crf 20 -c:a aac -b:a 160k -movflags \u002Bfaststart \u0022C:\\Users\\budcr\\source\\repos\\FilmStudio\\projects\\TellTaleHeartV7\\assets\\video\\scene_01.mp4\u0022","output":"C:\\Users\\budcr\\source\\repos\\FilmStudio\\projects\\TellTaleHeartV7\\assets\\video\\scene_01.mp4","exitCode":0,"timedOut":false,"wallMs":8127,"ffmpegPath":"C:\\Users\\budcr\\source\\repos\\FilmStudio\\host\\FilmStudio.Api\\bin\\Debug\\net10.0\\Resources\\ffmpeg.exe","scene":1,"includedCount":13,"excludedCount":0,"progress":["out_time=N/A","out_time=00:01:11.803537"],"stats":{"lastTime":"out_time=00:01:11.803537","lastSpeed":"speed=9.41x"},"ok":true}
{"ts":"2026-07-22T20:18:00.7577115+00:00","projectId":"TellTaleHeartV7","op":"S02 concat","args":"-hide_banner -loglevel info -progress pipe:1 -nostats -y -i \u0022C:\\Users\\budcr\\source\\repos\\FilmStudio\\projects\\TellTaleHeartV7\\assets\\video\\scene_02_clip_01.mp4\u0022 -i \u0022C:\\Users\\budcr\\source\\repos\\FilmStudio\\projects\\TellTaleHeartV7\\assets\\video\\scene_02_clip_02.mp4\u0022 -i \u0022C:\\Users\\budcr\\source\\repos\\FilmStudio\\projects\\TellTaleHeartV7\\assets\\video\\scene_02_clip_03.mp4\u0022 -i \u0022C:\\Users\\budcr\\source\\repos\\FilmStudio\\projects\\TellTaleHeartV7\\assets\\video\\scene_02_clip_04.mp4\u0022 -i \u0022C:\\Users\\budcr\\source\\repos\\FilmStudio\\projects\\TellTaleHeartV7\\assets\\video\\scene_02_clip_05.mp4\u0022 -i \u0022C:\\Users\\budcr\\source\\repos\\FilmStudio\\projects\\TellTaleHeartV7\\assets\\video\\scene_02_clip_06.mp4\u0022 -filter_complex \u0022[0:v][0:a][1:v][1:a][2:v][2:a][3:v][3:a][4:v][4:a][5:v][5:a]concat=n=6:v=1:a=1[v][a]\u0022 -map \u0022[v]\u0022 -map \u0022[a]\u0022 -c:v libx264 -preset veryfast -crf 20 -c:a aac -b:a 160k -movflags \u002Bfaststart \u0022C:\\Users\\budcr\\source\\repos\\FilmStudio\\projects\\TellTaleHeartV7\\assets\\video\\scene_02.mp4\u0022","output":"C:\\Users\\budcr\\source\\repos\\FilmStudio\\projects\\TellTaleHeartV7\\assets\\video\\scene_02.mp4","exitCode":0,"timedOut":false,"wallMs":6626,"ffmpegPath":"C:\\Users\\budcr\\source\\repos\\FilmStudio\\host\\FilmStudio.Api\\bin\\Debug\\net10.0\\Resources\\ffmpeg.exe","scene":2,"includedCount":6,"excludedCount":0,"progress":["out_time=00:00:02.166667","frame= 1461 fps=231 q=-1.0 Lsize=   11750KiB time=00:01:00.87 bitrate=1581.2kbits/s speed=9.61x elapsed=0:00:06.33"],"stats":{"lastTime":"frame= 1461 fps=231 q=-1.0 Lsize=   11750KiB time=00:01:00.87 bitrate=1581.2kbits/s speed=9.61x elapsed=0:00:06.33","lastSpeed":"speed=9.61x"},"ok":true}
{"ts":"2026-07-22T20:25:19.3731637+00:00","projectId":"TellTaleHeartV7","op":"S01 concat","args":"-hide_banner -loglevel info -progress pipe:1 -nostats -y -i \u0022C:\\Users\\budcr\\source\\repos\\FilmStudio\\projects\\TellTaleHeartV7\\assets\\video\\scene_01_clip_01.mp4\u0022 -i \u0022C:\\Users\\budcr\\source\\repos\\FilmStudio\\projects\\TellTaleHeartV7\\assets\\video\\scene_01_clip_02.mp4\u0022 -i \u0022C:\\Users\\budcr\\source\\repos\\FilmStudio\\projects\\TellTaleHeartV7\\assets\\video\\scene_01_clip_03.mp4\u0022 -i \u0022C:\\Users\\budcr\\source\\repos\\FilmStudio\\projects\\TellTaleHeartV7\\assets\\video\\scene_01_clip_04.mp4\u0022 -i \u0022C:\\Users\\budcr\\source\\repos\\FilmStudio\\projects\\TellTaleHeartV7\\assets\\video\\scene_01_clip_05.mp4\u0022 -i \u0022C:\\Users\\budcr\\source\\repos\\FilmStudio\\projects\\TellTaleHeartV7\\assets\\video\\scene_01_clip_06.mp4\u0022 -i \u0022C:\\Users\\budcr\\source\\repos\\FilmStudio\\projects\\TellTaleHeartV7\\assets\\video\\scene_01_clip_07.mp4\u0022 -i \u0022C:\\Users\\budcr\\source\\repos\\FilmStudio\\projects\\TellTaleHeartV7\\assets\\video\\scene_01_clip_08.mp4\u0022 -i \u0022C:\\Users\\budcr\\source\\repos\\FilmStudio\\projects\\TellTaleHeartV7\\assets\\video\\scene_01_clip_09.mp4\u0022 -i \u0022C:\\Users\\budcr\\source\\repos\\FilmStudio\\projects\\TellTaleHeartV7\\assets\\video\\scene_01_clip_10.mp4\u0022 -i \u0022C:\\Users\\budcr\\source\\repos\\FilmStudio\\projects\\TellTaleHeartV7\\assets\\video\\scene_01_clip_11.mp4\u0022 -i \u0022C:\\Users\\budcr\\source\\repos\\FilmStudio\\projects\\TellTaleHeartV7\\assets\\video\\scene_01_clip_12.mp4\u0022 -i \u0022C:\\Users\\budcr\\source\\repos\\FilmStudio\\projects\\TellTaleHeartV7\\assets\\video\\scene_01_clip_13.mp4\u0022 -i \u0022C:\\Users\\budcr\\source\\repos\\FilmStudio\\projects\\TellTaleHeartV7\\assets\\video\\scene_01_clip_14.mp4\u0022 -filter_complex \u0022[0:v][0:a][1:v][1:a][2:v][2:a][3:v][3:a][4:v][4:a][5:v][5:a][6:v][6:a][7:v][7:a][8:v][8:a][9:v][9:a][10:v][10:a][11:v][11:a][12:v][12:a][13:v][13:a]concat=n=14:v=1:a=1[v][a]\u0022 -map \u0022[v]\u0022 -map \u0022[a]\u0022 -c:v libx264 -preset veryfast -crf 20 -c:a aac -b:a 160k -movflags \u002Bfaststart \u0022C:\\Users\\budcr\\source\\repos\\FilmStudio\\projects\\TellTaleHeartV7\\assets\\video\\scene_01.mp4\u0022","output":"C:\\Users\\budcr\\source\\repos\\FilmStudio\\projects\\TellTaleHeartV7\\assets\\video\\scene_01.mp4","exitCode":0,"timedOut":false,"wallMs":10420,"ffmpegPath":"C:\\Users\\budcr\\source\\repos\\FilmStudio\\host\\FilmStudio.Api\\bin\\Debug\\net10.0\\Resources\\ffmpeg.exe","scene":1,"includedCount":14,"excludedCount":0,"progress":["out_time=00:00:01.583333","out_time=00:01:22.291667"],"stats":{"lastTime":"out_time=00:01:22.291667","lastSpeed":"speed=8.38x"},"ok":true}
{"ts":"2026-07-22T20:25:39.3937436+00:00","projectId":"TellTaleHeartV7","op":"WIP concat","args":"-hide_banner -loglevel info -progress pipe:1 -nostats -y -i \u0022C:\\Users\\budcr\\source\\repos\\FilmStudio\\projects\\TellTaleHeartV7\\assets\\video\\scene_01.mp4\u0022 -i \u0022C:\\Users\\budcr\\source\\repos\\FilmStudio\\projects\\TellTaleHeartV7\\assets\\video\\scene_02.mp4\u0022 -filter_complex \u0022[0:v][0:a][1:v][1:a]concat=n=2:v=1:a=1[v][a]\u0022 -map \u0022[v]\u0022 -map \u0022[a]\u0022 -c:v libx264 -preset veryfast -crf 20 -c:a aac -b:a 160k -movflags \u002Bfaststart \u0022C:\\Users\\budcr\\source\\repos\\FilmStudio\\projects\\TellTaleHeartV7\\assets\\movie_wip.mp4\u0022","output":"C:\\Users\\budcr\\source\\repos\\FilmStudio\\projects\\TellTaleHeartV7\\assets\\movie_wip.mp4","exitCode":0,"timedOut":false,"wallMs":19558,"ffmpegPath":"C:\\Users\\budcr\\source\\repos\\FilmStudio\\host\\FilmStudio.Api\\bin\\Debug\\net10.0\\Resources\\ffmpeg.exe","progress":["out_time=00:00:02.791667","frame= 3434 fps=178 q=-1.0 Lsize=   27083KiB time=00:02:23.25 bitrate=1548.8kbits/s speed=7.41x elapsed=0:00:19.33"],"stats":{"lastTime":"frame= 3434 fps=178 q=-1.0 Lsize=   27083KiB time=00:02:23.25 bitrate=1548.8kbits/s speed=7.41x elapsed=0:00:19.33","lastSpeed":"speed=7.41x"},"ok":true}
{"ts":"2026-07-23T02:38:32.900585+00:00","projectId":"TellTaleHeartV7","op":"S02 concat","args":"-hide_banner -loglevel info -progress pipe:1 -nostats -y -i \u0022C:\\Users\\budcr\\source\\repos\\FilmStudio\\projects\\TellTaleHeartV7\\assets\\video\\scene_02_clip_01.mp4\u0022 -i \u0022C:\\Users\\budcr\\source\\repos\\FilmStudio\\projects\\TellTaleHeartV7\\assets\\video\\scene_02_clip_02.mp4\u0022 -i \u0022C:\\Users\\budcr\\source\\repos\\FilmStudio\\projects\\TellTaleHeartV7\\assets\\video\\scene_02_clip_03.mp4\u0022 -i \u0022C:\\Users\\budcr\\source\\repos\\FilmStudio\\projects\\TellTaleHeartV7\\assets\\video\\scene_02_clip_04.mp4\u0022 -i \u0022C:\\Users\\budcr\\source\\repos\\FilmStudio\\projects\\TellTaleHeartV7\\assets\\video\\scene_02_clip_05.mp4\u0022 -i \u0022C:\\Users\\budcr\\source\\repos\\FilmStudio\\projects\\TellTaleHeartV7\\assets\\video\\scene_02_clip_06.mp4\u0022 -filter_complex \u0022[0:v][0:a][1:v][1:a][2:v][2:a][3:v][3:a][4:v][4:a][5:v][5:a]concat=n=6:v=1:a=1[v][a]\u0022 -map \u0022[v]\u0022 -map \u0022[a]\u0022 -c:v libx264 -preset veryfast -crf 20 -c:a aac -b:a 160k -movflags \u002Bfaststart \u0022C:\\Users\\budcr\\source\\repos\\FilmStudio\\projects\\TellTaleHeartV7\\assets\\video\\scene_02.mp4\u0022","output":"C:\\Users\\budcr\\source\\repos\\FilmStudio\\projects\\TellTaleHeartV7\\assets\\video\\scene_02.mp4","exitCode":0,"timedOut":false,"wallMs":3451,"ffmpegPath":"C:\\Users\\budcr\\source\\repos\\FilmStudio\\host\\FilmStudio.Api\\bin\\Debug\\net10.0\\Resources\\ffmpeg.exe","scene":2,"includedCount":6,"excludedCount":0,"progress":["out_time=00:00:01.833333","frame=  707 fps=223 q=-1.0 Lsize=    6573KiB time=00:00:29.41 bitrate=1830.4kbits/s speed=9.29x elapsed=0:00:03.16"],"stats":{"lastTime":"frame=  707 fps=223 q=-1.0 Lsize=    6573KiB time=00:00:29.41 bitrate=1830.4kbits/s speed=9.29x elapsed=0:00:03.16","lastSpeed":"speed=9.29x"},"ok":true}
{"ts":"2026-07-23T13:50:56.389842+00:00","projectId":"TellTaleHeartV7","op":"S01 concat","args":"-hide_banner -loglevel info -progress pipe:1 -nostats -y -i \u0022C:\\Users\\budcr\\source\\repos\\FilmStudio\\projects\\TellTaleHeartV7\\assets\\video\\scene_01_clip_01.mp4\u0022 -i \u0022C:\\Users\\budcr\\source\\repos\\FilmStudio\\projects\\TellTaleHeartV7\\assets\\video\\scene_01_clip_02.mp4\u0022 -i \u0022C:\\Users\\budcr\\source\\repos\\FilmStudio\\projects\\TellTaleHeartV7\\assets\\video\\scene_01_clip_03.mp4\u0022 -i \u0022C:\\Users\\budcr\\source\\repos\\FilmStudio\\projects\\TellTaleHeartV7\\assets\\video\\scene_01_clip_04.mp4\u0022 -i \u0022C:\\Users\\budcr\\source\\repos\\FilmStudio\\projects\\TellTaleHeartV7\\assets\\video\\scene_01_clip_05.mp4\u0022 -i \u0022C:\\Users\\budcr\\source\\repos\\FilmStudio\\projects\\TellTaleHeartV7\\assets\\video\\scene_01_clip_06.mp4\u0022 -i \u0022C:\\Users\\budcr\\source\\repos\\FilmStudio\\projects\\TellTaleHeartV7\\assets\\video\\scene_01_clip_07.mp4\u0022 -i \u0022C:\\Users\\budcr\\source\\repos\\FilmStudio\\projects\\TellTaleHeartV7\\assets\\video\\scene_01_clip_08.mp4\u0022 -i \u0022C:\\Users\\budcr\\source\\repos\\FilmStudio\\projects\\TellTaleHeartV7\\assets\\video\\scene_01_clip_09.mp4\u0022 -i \u0022C:\\Users\\budcr\\source\\repos\\FilmStudio\\projects\\TellTaleHeartV7\\assets\\video\\scene_01_clip_10.mp4\u0022 -i \u0022C:\\Users\\budcr\\source\\repos\\FilmStudio\\projects\\TellTaleHeartV7\\assets\\video\\scene_01_clip_11.mp4\u0022 -i \u0022C:\\Users\\budcr\\source\\repos\\FilmStudio\\projects\\TellTaleHeartV7\\assets\\video\\scene_01_clip_12.mp4\u0022 -i \u0022C:\\Users\\budcr\\source\\repos\\FilmStudio\\projects\\TellTaleHeartV7\\assets\\video\\scene_01_clip_13.mp4\u0022 -filter_complex \u0022[0:v][0:a][1:v][1:a][2:v][2:a][3:v][3:a][4:v][4:a][5:v][5:a][6:v][6:a][7:v][7:a][8:v][8:a][9:v][9:a][10:v][10:a][11:v][11:a][12:v][12:a]concat=n=13:v=1:a=1[v][a]\u0022 -map \u0022[v]\u0022 -map \u0022[a]\u0022 -c:v libx264 -preset veryfast -crf 20 -c:a aac -b:a 160k -movflags \u002Bfaststart \u0022C:\\Users\\budcr\\source\\repos\\FilmStudio\\projects\\TellTaleHeartV7\\assets\\video\\scene_01.mp4\u0022","output":"C:\\Users\\budcr\\source\\repos\\FilmStudio\\projects\\TellTaleHeartV7\\assets\\video\\scene_01.mp4","exitCode":0,"timedOut":false,"wallMs":5423,"ffmpegPath":"C:\\Users\\budcr\\source\\repos\\FilmStudio\\host\\FilmStudio.Api\\bin\\Debug\\net10.0\\Resources\\ffmpeg.exe","scene":1,"includedCount":13,"excludedCount":0,"progress":["out_time=N/A","frame= 1526 fps=315 q=-1.0 Lsize=    7096KiB time=00:01:03.58 bitrate= 914.2kbits/s speed=13.1x elapsed=0:00:04.83"],"stats":{"lastTime":"frame= 1526 fps=315 q=-1.0 Lsize=    7096KiB time=00:01:03.58 bitrate= 914.2kbits/s speed=13.1x elapsed=0:00:04.83","lastSpeed":"speed=13.1x"},"ok":true}
{"ts":"2026-07-23T13:50:59.0968574+00:00","projectId":"TellTaleHeartV7","op":"S02 concat","args":"-hide_banner -loglevel info -progress pipe:1 -nostats -y -i \u0022C:\\Users\\budcr\\source\\repos\\FilmStudio\\projects\\TellTaleHeartV7\\assets\\video\\scene_02_clip_01.mp4\u0022 -i \u0022C:\\Users\\budcr\\source\\repos\\FilmStudio\\projects\\TellTaleHeartV7\\assets\\video\\scene_02_clip_02.mp4\u0022 -i \u0022C:\\Users\\budcr\\source\\repos\\FilmStudio\\projects\\TellTaleHeartV7\\assets\\video\\scene_02_clip_03.mp4\u0022 -i \u0022C:\\Users\\budcr\\source\\repos\\FilmStudio\\projects\\TellTaleHeartV7\\assets\\video\\scene_02_clip_04.mp4\u0022 -i \u0022C:\\Users\\budcr\\source\\repos\\FilmStudio\\projects\\TellTaleHeartV7\\assets\\video\\scene_02_clip_05.mp4\u0022 -filter_complex \u0022[0:v][0:a][1:v][1:a][2:v][2:a][3:v][3:a][4:v][4:a]concat=n=5:v=1:a=1[v][a]\u0022 -map \u0022[v]\u0022 -map \u0022[a]\u0022 -c:v libx264 -preset veryfast -crf 20 -c:a aac -b:a 160k -movflags \u002Bfaststart \u0022C:\\Users\\budcr\\source\\repos\\FilmStudio\\projects\\TellTaleHeartV7\\assets\\video\\scene_02.mp4\u0022","output":"C:\\Users\\budcr\\source\\repos\\FilmStudio\\projects\\TellTaleHeartV7\\assets\\video\\scene_02.mp4","exitCode":0,"timedOut":false,"wallMs":2177,"ffmpegPath":"C:\\Users\\budcr\\source\\repos\\FilmStudio\\host\\FilmStudio.Api\\bin\\Debug\\net10.0\\Resources\\ffmpeg.exe","scene":2,"includedCount":5,"excludedCount":0,"progress":["out_time=00:00:03.375000","out_time=00:00:24.041667"],"stats":{"lastTime":"out_time=00:00:24.041667","lastSpeed":"speed=12.4x"},"ok":true}
{"ts":"2026-07-23T13:51:05.181053+00:00","projectId":"TellTaleHeartV7","op":"WIP concat","args":"-hide_banner -loglevel info -progress pipe:1 -nostats -y -i \u0022C:\\Users\\budcr\\source\\repos\\FilmStudio\\projects\\TellTaleHeartV7\\assets\\video\\scene_01.mp4\u0022 -i \u0022C:\\Users\\budcr\\source\\repos\\FilmStudio\\projects\\TellTaleHeartV7\\assets\\video\\scene_02.mp4\u0022 -filter_complex \u0022[0:v][0:a][1:v][1:a]concat=n=2:v=1:a=1[v][a]\u0022 -map \u0022[v]\u0022 -map \u0022[a]\u0022 -c:v libx264 -preset veryfast -crf 20 -c:a aac -b:a 160k -movflags \u002Bfaststart \u0022C:\\Users\\budcr\\source\\repos\\FilmStudio\\projects\\TellTaleHeartV7\\assets\\movie_wip.mp4\u0022","output":"C:\\Users\\budcr\\source\\repos\\FilmStudio\\projects\\TellTaleHeartV7\\assets\\movie_wip.mp4","exitCode":0,"timedOut":false,"wallMs":5700,"ffmpegPath":"C:\\Users\\budcr\\source\\repos\\FilmStudio\\host\\FilmStudio.Api\\bin\\Debug\\net10.0\\Resources\\ffmpeg.exe","progress":["out_time=00:00:06.875000","out_time=00:01:27.708333"],"stats":{"lastTime":"out_time=00:01:27.708333","lastSpeed":"speed=15.9x"},"ok":true}
{"ts":"2026-07-23T18:53:22.6942472+00:00","projectId":"TellTaleHeartV7","op":"S02 concat","args":"-hide_banner -loglevel info -progress pipe:1 -nostats -y -i \u0022C:\\Users\\budcr\\source\\repos\\FilmStudio\\projects\\TellTaleHeartV7\\assets\\video\\scene_02_clip_01.mp4\u0022 -i \u0022C:\\Users\\budcr\\source\\repos\\FilmStudio\\projects\\TellTaleHeartV7\\assets\\video\\scene_02_clip_02.mp4\u0022 -i \u0022C:\\Users\\budcr\\source\\repos\\FilmStudio\\projects\\TellTaleHeartV7\\assets\\video\\scene_02_clip_03.mp4\u0022 -i \u0022C:\\Users\\budcr\\source\\repos\\FilmStudio\\projects\\TellTaleHeartV7\\assets\\video\\scene_02_clip_04.mp4\u0022 -filter_complex \u0022[0:v][0:a][1:v][1:a][2:v][2:a][3:v][3:a]concat=n=4:v=1:a=1[v][a]\u0022 -map \u0022[v]\u0022 -map \u0022[a]\u0022 -c:v libx264 -preset veryfast -crf 20 -c:a aac -b:a 160k -movflags \u002Bfaststart \u0022C:\\Users\\budcr\\source\\repos\\FilmStudio\\projects\\TellTaleHeartV7\\assets\\video\\scene_02.mp4\u0022","output":"C:\\Users\\budcr\\source\\repos\\FilmStudio\\projects\\TellTaleHeartV7\\assets\\video\\scene_02.mp4","exitCode":0,"timedOut":false,"wallMs":1347,"ffmpegPath":"C:\\Users\\budcr\\source\\repos\\FilmStudio\\host\\FilmStudio.Api\\bin\\Debug\\net10.0\\Resources\\ffmpeg.exe","scene":2,"includedCount":4,"excludedCount":0,"progress":["out_time=00:00:06.875000","frame=  460 fps=410 q=-1.0 Lsize=    2036KiB time=00:00:19.08 bitrate= 873.9kbits/s speed=  17x elapsed=0:00:01.12"],"stats":{"lastTime":"frame=  460 fps=410 q=-1.0 Lsize=    2036KiB time=00:00:19.08 bitrate= 873.9kbits/s speed=  17x elapsed=0:00:01.12","lastSpeed":"speed=  17x"},"ok":true}
{"ts":"2026-07-23T18:53:25.0823147+00:00","projectId":"TellTaleHeartV7","op":"S03 concat","args":"-hide_banner -loglevel info -progress pipe:1 -nostats -y -i \u0022C:\\Users\\budcr\\source\\repos\\FilmStudio\\projects\\TellTaleHeartV7\\assets\\video\\scene_03_clip_01.mp4\u0022 -i \u0022C:\\Users\\budcr\\source\\repos\\FilmStudio\\projects\\TellTaleHeartV7\\assets\\video\\scene_03_clip_02.mp4\u0022 -i \u0022C:\\Users\\budcr\\source\\repos\\FilmStudio\\projects\\TellTaleHeartV7\\assets\\video\\scene_03_clip_03.mp4\u0022 -i \u0022C:\\Users\\budcr\\source\\repos\\FilmStudio\\projects\\TellTaleHeartV7\\assets\\video\\scene_03_clip_04.mp4\u0022 -i \u0022C:\\Users\\budcr\\source\\repos\\FilmStudio\\projects\\TellTaleHeartV7\\assets\\video\\scene_03_clip_05.mp4\u0022 -i \u0022C:\\Users\\budcr\\source\\repos\\FilmStudio\\projects\\TellTaleHeartV7\\assets\\video\\scene_03_clip_06.mp4\u0022 -filter_complex \u0022[0:v][0:a][1:v][1:a][2:v][2:a][3:v][3:a][4:v][4:a][5:v][5:a]concat=n=6:v=1:a=1[v][a]\u0022 -map \u0022[v]\u0022 -map \u0022[a]\u0022 -c:v libx264 -preset veryfast -crf 20 -c:a aac -b:a 160k -movflags \u002Bfaststart \u0022C:\\Users\\budcr\\source\\repos\\FilmStudio\\projects\\TellTaleHeartV7\\assets\\video\\scene_03.mp4\u0022","output":"C:\\Users\\budcr\\source\\repos\\FilmStudio\\projects\\TellTaleHeartV7\\assets\\video\\scene_03.mp4","exitCode":0,"timedOut":false,"wallMs":1932,"ffmpegPath":"C:\\Users\\budcr\\source\\repos\\FilmStudio\\host\\FilmStudio.Api\\bin\\Debug\\net10.0\\Resources\\ffmpeg.exe","scene":3,"includedCount":6,"excludedCount":0,"progress":["out_time=00:00:06.958333","frame=  700 fps=425 q=-1.0 Lsize=    3203KiB time=00:00:29.08 bitrate= 902.2kbits/s speed=17.7x elapsed=0:00:01.64"],"stats":{"lastTime":"frame=  700 fps=425 q=-1.0 Lsize=    3203KiB time=00:00:29.08 bitrate= 902.2kbits/s speed=17.7x elapsed=0:00:01.64","lastSpeed":"speed=17.7x"},"ok":true}
{"ts":"2026-07-23T18:53:27.8839887+00:00","projectId":"TellTaleHeartV7","op":"S04 concat","args":"-hide_banner -loglevel info -progress pipe:1 -nostats -y -i \u0022C:\\Users\\budcr\\source\\repos\\FilmStudio\\projects\\TellTaleHeartV7\\assets\\video\\scene_04_clip_01.mp4\u0022 -i \u0022C:\\Users\\budcr\\source\\repos\\FilmStudio\\projects\\TellTaleHeartV7\\assets\\video\\scene_04_clip_02.mp4\u0022 -i \u0022C:\\Users\\budcr\\source\\repos\\FilmStudio\\projects\\TellTaleHeartV7\\assets\\video\\scene_04_clip_03.mp4\u0022 -i \u0022C:\\Users\\budcr\\source\\repos\\FilmStudio\\projects\\TellTaleHeartV7\\assets\\video\\scene_04_clip_04.mp4\u0022 -i \u0022C:\\Users\\budcr\\source\\repos\\FilmStudio\\projects\\TellTaleHeartV7\\assets\\video\\scene_04_clip_05.mp4\u0022 -i \u0022C:\\Users\\budcr\\source\\repos\\FilmStudio\\projects\\TellTaleHeartV7\\assets\\video\\scene_04_clip_06.mp4\u0022 -filter_complex \u0022[0:v][0:a][1:v][1:a][2:v][2:a][3:v][3:a][4:v][4:a][5:v][5:a]concat=n=6:v=1:a=1[v][a]\u0022 -map \u0022[v]\u0022 -map \u0022[a]\u0022 -c:v libx264 -preset veryfast -crf 20 -c:a aac -b:a 160k -movflags \u002Bfaststart \u0022C:\\Users\\budcr\\source\\repos\\FilmStudio\\projects\\TellTaleHeartV7\\assets\\video\\scene_04.mp4\u0022","output":"C:\\Users\\budcr\\source\\repos\\FilmStudio\\projects\\TellTaleHeartV7\\assets\\video\\scene_04.mp4","exitCode":0,"timedOut":false,"wallMs":2220,"ffmpegPath":"C:\\Users\\budcr\\source\\repos\\FilmStudio\\host\\FilmStudio.Api\\bin\\Debug\\net10.0\\Resources\\ffmpeg.exe","scene":4,"includedCount":6,"excludedCount":0,"progress":["out_time=00:00:06.208333","out_time=00:00:34.781202"],"stats":{"lastTime":"out_time=00:00:34.781202","lastSpeed":"speed=17.4x"},"ok":true}
{"ts":"2026-07-23T18:53:32.0442841+00:00","projectId":"TellTaleHeartV7","op":"S05 concat","args":"-hide_banner -loglevel info -progress pipe:1 -nostats -y -i \u0022C:\\Users\\budcr\\source\\repos\\FilmStudio\\projects\\TellTaleHeartV7\\assets\\video\\scene_05_clip_01.mp4\u0022 -i \u0022C:\\Users\\budcr\\source\\repos\\FilmStudio\\projects\\TellTaleHeartV7\\assets\\video\\scene_05_clip_02.mp4\u0022 -i \u0022C:\\Users\\budcr\\source\\repos\\FilmStudio\\projects\\TellTaleHeartV7\\assets\\video\\scene_05_clip_03.mp4\u0022 -i \u0022C:\\Users\\budcr\\source\\repos\\FilmStudio\\projects\\TellTaleHeartV7\\assets\\video\\scene_05_clip_04.mp4\u0022 -i \u0022C:\\Users\\budcr\\source\\repos\\FilmStudio\\projects\\TellTaleHeartV7\\assets\\video\\scene_05_clip_05.mp4\u0022 -i \u0022C:\\Users\\budcr\\source\\repos\\FilmStudio\\projects\\TellTaleHeartV7\\assets\\video\\scene_05_clip_06.mp4\u0022 -i \u0022C:\\Users\\budcr\\source\\repos\\FilmStudio\\projects\\TellTaleHeartV7\\assets\\video\\scene_05_clip_07.mp4\u0022 -i \u0022C:\\Users\\budcr\\source\\repos\\FilmStudio\\projects\\TellTaleHeartV7\\assets\\video\\scene_05_clip_08.mp4\u0022 -i \u0022C:\\Users\\budcr\\source\\repos\\FilmStudio\\projects\\TellTaleHeartV7\\assets\\video\\scene_05_clip_09.mp4\u0022 -filter_complex \u0022[0:v][0:a][1:v][1:a][2:v][2:a][3:v][3:a][4:v][4:a][5:v][5:a][6:v][6:a][7:v][7:a][8:v][8:a]concat=n=9:v=1:a=1[v][a]\u0022 -map \u0022[v]\u0022 -map \u0022[a]\u0022 -c:v libx264 -preset veryfast -crf 20 -c:a aac -b:a 160k -movflags \u002Bfaststart \u0022C:\\Users\\budcr\\source\\repos\\FilmStudio\\projects\\TellTaleHeartV7\\assets\\video\\scene_05.mp4\u0022","output":"C:\\Users\\budcr\\source\\repos\\FilmStudio\\projects\\TellTaleHeartV7\\assets\\video\\scene_05.mp4","exitCode":0,"timedOut":false,"wallMs":3386,"ffmpegPath":"C:\\Users\\budcr\\source\\repos\\FilmStudio\\host\\FilmStudio.Api\\bin\\Debug\\net10.0\\Resources\\ffmpeg.exe","scene":5,"includedCount":9,"excludedCount":0,"progress":["out_time=00:00:05.750000","out_time=00:00:48.875000"],"stats":{"lastTime":"out_time=00:00:48.875000","lastSpeed":"speed=15.8x"},"ok":true}
{"ts":"2026-07-23T18:53:43.1699292+00:00","projectId":"TellTaleHeartV7","op":"WIP concat","args":"-hide_banner -loglevel info -progress pipe:1 -nostats -y -i \u0022C:\\Users\\budcr\\source\\repos\\FilmStudio\\projects\\TellTaleHeartV7\\assets\\video\\scene_01.mp4\u0022 -i \u0022C:\\Users\\budcr\\source\\repos\\FilmStudio\\projects\\TellTaleHeartV7\\assets\\video\\scene_02.mp4\u0022 -i \u0022C:\\Users\\budcr\\source\\repos\\FilmStudio\\projects\\TellTaleHeartV7\\assets\\video\\scene_03.mp4\u0022 -i \u0022C:\\Users\\budcr\\source\\repos\\FilmStudio\\projects\\TellTaleHeartV7\\assets\\video\\scene_04.mp4\u0022 -i \u0022C:\\Users\\budcr\\source\\repos\\FilmStudio\\projects\\TellTaleHeartV7\\assets\\video\\scene_05.mp4\u0022 -filter_complex \u0022[0:v][0:a][1:v][1:a][2:v][2:a][3:v][3:a][4:v][4:a]concat=n=5:v=1:a=1[v][a]\u0022 -map \u0022[v]\u0022 -map \u0022[a]\u0022 -c:v libx264 -preset veryfast -crf 20 -c:a aac -b:a 160k -movflags \u002Bfaststart \u0022C:\\Users\\budcr\\source\\repos\\FilmStudio\\projects\\TellTaleHeartV7\\assets\\movie_wip.mp4\u0022","output":"C:\\Users\\budcr\\source\\repos\\FilmStudio\\projects\\TellTaleHeartV7\\assets\\movie_wip.mp4","exitCode":0,"timedOut":false,"wallMs":10652,"ffmpegPath":"C:\\Users\\budcr\\source\\repos\\FilmStudio\\host\\FilmStudio.Api\\bin\\Debug\\net10.0\\Resources\\ffmpeg.exe","progress":["out_time=00:00:07.333333","frame= 4696 fps=448 q=-1.0 Lsize=   21049KiB time=00:03:15.79 bitrate= 880.7kbits/s speed=18.7x elapsed=0:00:10.47"],"stats":{"lastTime":"frame= 4696 fps=448 q=-1.0 Lsize=   21049KiB time=00:03:15.79 bitrate= 880.7kbits/s speed=18.7x elapsed=0:00:10.47","lastSpeed":"speed=18.7x"},"ok":true}
{"ts":"2026-07-23T23:02:33.2635782+00:00","projectId":"TellTaleHeartV7","op":"S06 concat","args":"-hide_banner -loglevel info -progress pipe:1 -nostats -y -i \u0022C:\\Users\\budcr\\source\\repos\\FilmStudio\\projects\\TellTaleHeartV7\\assets\\video\\scene_06_clip_01.mp4\u0022 -i \u0022C:\\Users\\budcr\\source\\repos\\FilmStudio\\projects\\TellTaleHeartV7\\assets\\video\\scene_06_clip_02.mp4\u0022 -i \u0022C:\\Users\\budcr\\source\\repos\\FilmStudio\\projects\\TellTaleHeartV7\\assets\\video\\scene_06_clip_03.mp4\u0022 -i \u0022C:\\Users\\budcr\\source\\repos\\FilmStudio\\projects\\TellTaleHeartV7\\assets\\video\\scene_06_clip_04.mp4\u0022 -i \u0022C:\\Users\\budcr\\source\\repos\\FilmStudio\\projects\\TellTaleHeartV7\\assets\\video\\scene_06_clip_05.mp4\u0022 -i \u0022C:\\Users\\budcr\\source\\repos\\FilmStudio\\projects\\TellTaleHeartV7\\assets\\video\\scene_06_clip_06.mp4\u0022 -i \u0022C:\\Users\\budcr\\source\\repos\\FilmStudio\\projects\\TellTaleHeartV7\\assets\\video\\scene_06_clip_07.mp4\u0022 -filter_complex \u0022[0:v][0:a][1:v][1:a][2:v][2:a][3:v][3:a][4:v][4:a][5:v][5:a][6:v][6:a]concat=n=7:v=1:a=1[v][a]\u0022 -map \u0022[v]\u0022 -map \u0022[a]\u0022 -c:v libx264 -preset veryfast -crf 20 -c:a aac -b:a 160k -movflags \u002Bfaststart \u0022C:\\Users\\budcr\\source\\repos\\FilmStudio\\projects\\TellTaleHeartV7\\assets\\video\\scene_06.mp4\u0022","output":"C:\\Users\\budcr\\source\\repos\\FilmStudio\\projects\\TellTaleHeartV7\\assets\\video\\scene_06.mp4","exitCode":0,"timedOut":false,"wallMs":4203,"ffmpegPath":"C:\\Users\\budcr\\source\\repos\\FilmStudio\\host\\FilmStudio.Api\\bin\\Debug\\net10.0\\Resources\\ffmpeg.exe","scene":6,"includedCount":7,"excludedCount":0,"progress":["out_time=00:00:02.958333","frame=  997 fps=259 q=-1.0 Lsize=    4140KiB time=00:00:41.45 bitrate= 818.1kbits/s speed=10.8x elapsed=0:00:03.85"],"stats":{"lastTime":"frame=  997 fps=259 q=-1.0 Lsize=    4140KiB time=00:00:41.45 bitrate= 818.1kbits/s speed=10.8x elapsed=0:00:03.85","lastSpeed":"speed=10.8x"},"ok":true}
{"ts":"2026-07-23T23:02:36.0749168+00:00","projectId":"TellTaleHeartV7","op":"S07 concat","args":"-hide_banner -loglevel info -progress pipe:1 -nostats -y -i \u0022C:\\Users\\budcr\\source\\repos\\FilmStudio\\projects\\TellTaleHeartV7\\assets\\video\\scene_07_clip_01.mp4\u0022 -i \u0022C:\\Users\\budcr\\source\\repos\\FilmStudio\\projects\\TellTaleHeartV7\\assets\\video\\scene_07_clip_02.mp4\u0022 -i \u0022C:\\Users\\budcr\\source\\repos\\FilmStudio\\projects\\TellTaleHeartV7\\assets\\video\\scene_07_clip_03.mp4\u0022 -i \u0022C:\\Users\\budcr\\source\\repos\\FilmStudio\\projects\\TellTaleHeartV7\\assets\\video\\scene_07_clip_04.mp4\u0022 -filter_complex \u0022[0:v][0:a][1:v][1:a][2:v][2:a][3:v][3:a]concat=n=4:v=1:a=1[v][a]\u0022 -map \u0022[v]\u0022 -map \u0022[a]\u0022 -c:v libx264 -preset veryfast -crf 20 -c:a aac -b:a 160k -movflags \u002Bfaststart \u0022C:\\Users\\budcr\\source\\repos\\FilmStudio\\projects\\TellTaleHeartV7\\assets\\video\\scene_07.mp4\u0022","output":"C:\\Users\\budcr\\source\\repos\\FilmStudio\\projects\\TellTaleHeartV7\\assets\\video\\scene_07.mp4","exitCode":0,"timedOut":false,"wallMs":1962,"ffmpegPath":"C:\\Users\\budcr\\source\\repos\\FilmStudio\\host\\FilmStudio.Api\\bin\\Debug\\net10.0\\Resources\\ffmpeg.exe","scene":7,"includedCount":4,"excludedCount":0,"progress":["out_time=00:00:03.583333","frame=  439 fps=260 q=-1.0 Lsize=    1714KiB time=00:00:18.20 bitrate= 771.1kbits/s speed=10.8x elapsed=0:00:01.68"],"stats":{"lastTime":"frame=  439 fps=260 q=-1.0 Lsize=    1714KiB time=00:00:18.20 bitrate= 771.1kbits/s speed=10.8x elapsed=0:00:01.68","lastSpeed":"speed=10.8x"},"ok":true}
{"ts":"2026-07-23T23:02:40.8259622+00:00","projectId":"TellTaleHeartV7","op":"S08 concat","args":"-hide_banner -loglevel info -progress pipe:1 -nostats -y -i \u0022C:\\Users\\budcr\\source\\repos\\FilmStudio\\projects\\TellTaleHeartV7\\assets\\video\\scene_08_clip_01.mp4\u0022 -i \u0022C:\\Users\\budcr\\source\\repos\\FilmStudio\\projects\\TellTaleHeartV7\\assets\\video\\scene_08_clip_02.mp4\u0022 -i \u0022C:\\Users\\budcr\\source\\repos\\FilmStudio\\projects\\TellTaleHeartV7\\assets\\video\\scene_08_clip_03.mp4\u0022 -i \u0022C:\\Users\\budcr\\source\\repos\\FilmStudio\\projects\\TellTaleHeartV7\\assets\\video\\scene_08_clip_04.mp4\u0022 -i \u0022C:\\Users\\budcr\\source\\repos\\FilmStudio\\projects\\TellTaleHeartV7\\assets\\video\\scene_08_clip_05.mp4\u0022 -i \u0022C:\\Users\\budcr\\source\\repos\\FilmStudio\\projects\\TellTaleHeartV7\\assets\\video\\scene_08_clip_06.mp4\u0022 -filter_complex \u0022[0:v][0:a][1:v][1:a][2:v][2:a][3:v][3:a][4:v][4:a][5:v][5:a]concat=n=6:v=1:a=1[v][a]\u0022 -map \u0022[v]\u0022 -map \u0022[a]\u0022 -c:v libx264 -preset veryfast -crf 20 -c:a aac -b:a 160k -movflags \u002Bfaststart \u0022C:\\Users\\budcr\\source\\repos\\FilmStudio\\projects\\TellTaleHeartV7\\assets\\video\\scene_08.mp4\u0022","output":"C:\\Users\\budcr\\source\\repos\\FilmStudio\\projects\\TellTaleHeartV7\\assets\\video\\scene_08.mp4","exitCode":0,"timedOut":false,"wallMs":3760,"ffmpegPath":"C:\\Users\\budcr\\source\\repos\\FilmStudio\\host\\FilmStudio.Api\\bin\\Debug\\net10.0\\Resources\\ffmpeg.exe","scene":8,"includedCount":6,"excludedCount":0,"progress":["out_time=00:00:02.041667","out_time=00:00:34.250000"],"stats":{"lastTime":"out_time=00:00:34.250000","lastSpeed":"speed=9.99x"},"ok":true}
{"ts":"2026-07-23T23:02:57.5024986+00:00","projectId":"TellTaleHeartV7","op":"S09 concat","args":"-hide_banner -loglevel info -progress pipe:1 -nostats -y -i \u0022C:\\Users\\budcr\\source\\repos\\FilmStudio\\projects\\TellTaleHeartV7\\assets\\video\\scene_09_clip_01.mp4\u0022 -i \u0022C:\\Users\\budcr\\source\\repos\\FilmStudio\\projects\\TellTaleHeartV7\\assets\\video\\scene_09_clip_02.mp4\u0022 -i \u0022C:\\Users\\budcr\\source\\repos\\FilmStudio\\projects\\TellTaleHeartV7\\assets\\video\\scene_09_clip_03.mp4\u0022 -i \u0022C:\\Users\\budcr\\source\\repos\\FilmStudio\\projects\\TellTaleHeartV7\\assets\\video\\scene_09_clip_04.mp4\u0022 -i \u0022C:\\Users\\budcr\\source\\repos\\FilmStudio\\projects\\TellTaleHeartV7\\assets\\video\\scene_09_clip_05.mp4\u0022 -i \u0022C:\\Users\\budcr\\source\\repos\\FilmStudio\\projects\\TellTaleHeartV7\\assets\\video\\scene_09_clip_06.mp4\u0022 -i \u0022C:\\Users\\budcr\\source\\repos\\FilmStudio\\projects\\TellTaleHeartV7\\assets\\video\\scene_09_clip_07.mp4\u0022 -i \u0022C:\\Users\\budcr\\source\\repos\\FilmStudio\\projects\\TellTaleHeartV7\\assets\\video\\scene_09_clip_08.mp4\u0022 -i \u0022C:\\Users\\budcr\\source\\repos\\FilmStudio\\projects\\TellTaleHeartV7\\assets\\video\\scene_09_clip_09.mp4\u0022 -i \u0022C:\\Users\\budcr\\source\\repos\\FilmStudio\\projects\\TellTaleHeartV7\\assets\\video\\scene_09_clip_10.mp4\u0022 -i \u0022C:\\Users\\budcr\\source\\repos\\FilmStudio\\projects\\TellTaleHeartV7\\assets\\video\\scene_09_clip_11.mp4\u0022 -i \u0022C:\\Users\\budcr\\source\\repos\\FilmStudio\\projects\\TellTaleHeartV7\\assets\\video\\scene_09_clip_12.mp4\u0022 -i \u0022C:\\Users\\budcr\\source\\repos\\FilmStudio\\projects\\TellTaleHeartV7\\assets\\video\\scene_09_clip_13.mp4\u0022 -i \u0022C:\\Users\\budcr\\source\\repos\\FilmStudio\\projects\\TellTaleHeartV7\\assets\\video\\scene_09_clip_14.mp4\u0022 -i \u0022C:\\Users\\budcr\\source\\repos\\FilmStudio\\projects\\TellTaleHeartV7\\assets\\video\\scene_09_clip_15.mp4\u0022 -i \u0022C:\\Users\\budcr\\source\\repos\\FilmStudio\\projects\\TellTaleHeartV7\\assets\\video\\scene_09_clip_16.mp4\u0022 -i \u0022C:\\Users\\budcr\\source\\repos\\FilmStudio\\projects\\TellTaleHeartV7\\assets\\video\\scene_09_clip_17.mp4\u0022 -i \u0022C:\\Users\\budcr\\source\\repos\\FilmStudio\\projects\\TellTaleHeartV7\\assets\\video\\scene_09_clip_18.mp4\u0022 -i \u0022C:\\Users\\budcr\\source\\repos\\FilmStudio\\projects\\TellTaleHeartV7\\assets\\video\\scene_09_clip_19.mp4\u0022 -i \u0022C:\\Users\\budcr\\source\\repos\\FilmStudio\\projects\\TellTaleHeartV7\\assets\\video\\scene_09_clip_20.mp4\u0022 -i \u0022C:\\Users\\budcr\\source\\repos\\FilmStudio\\projects\\TellTaleHeartV7\\assets\\video\\scene_09_clip_21.mp4\u0022 -i \u0022C:\\Users\\budcr\\source\\repos\\FilmStudio\\projects\\TellTaleHeartV7\\assets\\video\\scene_09_clip_22.mp4\u0022 -filter_complex \u0022[0:v][0:a][1:v][1:a][2:v][2:a][3:v][3:a][4:v][4:a][5:v][5:a][6:v][6:a][7:v][7:a][8:v][8:a][9:v][9:a][10:v][10:a][11:v][11:a][12:v][12:a][13:v][13:a][14:v][14:a][15:v][15:a][16:v][16:a][17:v][17:a][18:v][18:a][19:v][19:a][20:v][20:a][21:v][21:a]concat=n=22:v=1:a=1[v][a]\u0022 -map \u0022[v]\u0022 -map \u0022[a]\u0022 -c:v libx264 -preset veryfast -crf 20 -c:a aac -b:a 160k -movflags \u002Bfaststart \u0022C:\\Users\\budcr\\source\\repos\\FilmStudio\\projects\\TellTaleHeartV7\\assets\\video\\scene_09.mp4\u0022","output":"C:\\Users\\budcr\\source\\repos\\FilmStudio\\projects\\TellTaleHeartV7\\assets\\video\\scene_09.mp4","exitCode":0,"timedOut":false,"wallMs":13136,"ffmpegPath":"C:\\Users\\budcr\\source\\repos\\FilmStudio\\host\\FilmStudio.Api\\bin\\Debug\\net10.0\\Resources\\ffmpeg.exe","scene":9,"includedCount":22,"excludedCount":0,"progress":["out_time=00:00:03.083333","out_time=00:01:48.708333"],"stats":{"lastTime":"out_time=00:01:48.708333","lastSpeed":"speed=9.11x"},"ok":true}
{"ts":"2026-07-23T23:02:59.4945164+00:00","projectId":"TellTaleHeartV7","op":"S10 concat","args":"-hide_banner -loglevel info -progress pipe:1 -nostats -y -i \u0022C:\\Users\\budcr\\source\\repos\\FilmStudio\\projects\\TellTaleHeartV7\\assets\\video\\scene_10_clip_01.mp4\u0022 -i \u0022C:\\Users\\budcr\\source\\repos\\FilmStudio\\projects\\TellTaleHeartV7\\assets\\video\\scene_10_clip_02.mp4\u0022 -filter_complex \u0022[0:v][0:a][1:v][1:a]concat=n=2:v=1:a=1[v][a]\u0022 -map \u0022[v]\u0022 -map \u0022[a]\u0022 -c:v libx264 -preset veryfast -crf 20 -c:a aac -b:a 160k -movflags \u002Bfaststart \u0022C:\\Users\\budcr\\source\\repos\\FilmStudio\\projects\\TellTaleHeartV7\\assets\\video\\scene_10.mp4\u0022","output":"C:\\Users\\budcr\\source\\repos\\FilmStudio\\projects\\TellTaleHeartV7\\assets\\video\\scene_10.mp4","exitCode":0,"timedOut":false,"wallMs":1371,"ffmpegPath":"C:\\Users\\budcr\\source\\repos\\FilmStudio\\host\\FilmStudio.Api\\bin\\Debug\\net10.0\\Resources\\ffmpeg.exe","scene":10,"includedCount":2,"excludedCount":0,"progress":["out_time=00:00:04.791667","frame=  332 fps=289 q=-1.0 Lsize=    1365KiB time=00:00:13.79 bitrate= 810.5kbits/s speed=  12x elapsed=0:00:01.14"],"stats":{"lastTime":"frame=  332 fps=289 q=-1.0 Lsize=    1365KiB time=00:00:13.79 bitrate= 810.5kbits/s speed=  12x elapsed=0:00:01.14","lastSpeed":"speed=  12x"},"ok":true}
{"ts":"2026-07-23T23:03:31.977708+00:00","projectId":"TellTaleHeartV7","op":"S11 concat","args":"-hide_banner -loglevel info -progress pipe:1 -nostats -y -i \u0022C:\\Users\\budcr\\source\\repos\\FilmStudio\\projects\\TellTaleHeartV7\\assets\\video\\scene_11_clip_01.mp4\u0022 -i \u0022C:\\Users\\budcr\\source\\repos\\FilmStudio\\projects\\TellTaleHeartV7\\assets\\video\\scene_11_clip_02.mp4\u0022 -i \u0022C:\\Users\\budcr\\source\\repos\\FilmStudio\\projects\\TellTaleHeartV7\\assets\\video\\scene_11_clip_03.mp4\u0022 -i \u0022C:\\Users\\budcr\\source\\repos\\FilmStudio\\projects\\TellTaleHeartV7\\assets\\video\\scene_11_clip_04.mp4\u0022 -i \u0022C:\\Users\\budcr\\source\\repos\\FilmStudio\\projects\\TellTaleHeartV7\\assets\\video\\scene_11_clip_05.mp4\u0022 -i \u0022C:\\Users\\budcr\\source\\repos\\FilmStudio\\projects\\TellTaleHeartV7\\assets\\video\\scene_11_clip_06.mp4\u0022 -i \u0022C:\\Users\\budcr\\source\\repos\\FilmStudio\\projects\\TellTaleHeartV7\\assets\\video\\scene_11_clip_07.mp4\u0022 -i \u0022C:\\Users\\budcr\\source\\repos\\FilmStudio\\projects\\TellTaleHeartV7\\assets\\video\\scene_11_clip_08.mp4\u0022 -i \u0022C:\\Users\\budcr\\source\\repos\\FilmStudio\\projects\\TellTaleHeartV7\\assets\\video\\scene_11_clip_09.mp4\u0022 -i \u0022C:\\Users\\budcr\\source\\repos\\FilmStudio\\projects\\TellTaleHeartV7\\assets\\video\\scene_11_clip_10.mp4\u0022 -i \u0022C:\\Users\\budcr\\source\\repos\\FilmStudio\\projects\\TellTaleHeartV7\\assets\\video\\scene_11_clip_11.mp4\u0022 -i \u0022C:\\Users\\budcr\\source\\repos\\FilmStudio\\projects\\TellTaleHeartV7\\assets\\video\\scene_11_clip_12.mp4\u0022 -i \u0022C:\\Users\\budcr\\source\\repos\\FilmStudio\\projects\\TellTaleHeartV7\\assets\\video\\scene_11_clip_13.mp4\u0022 -i \u0022C:\\Users\\budcr\\source\\repos\\FilmStudio\\projects\\TellTaleHeartV7\\assets\\video\\scene_11_clip_14.mp4\u0022 -i \u0022C:\\Users\\budcr\\source\\repos\\FilmStudio\\projects\\TellTaleHeartV7\\assets\\video\\scene_11_clip_15.mp4\u0022 -i \u0022C:\\Users\\budcr\\source\\repos\\FilmStudio\\projects\\TellTaleHeartV7\\assets\\video\\scene_11_clip_16.mp4\u0022 -i \u0022C:\\Users\\budcr\\source\\repos\\FilmStudio\\projects\\TellTaleHeartV7\\assets\\video\\scene_11_clip_17.mp4\u0022 -i \u0022C:\\Users\\budcr\\source\\repos\\FilmStudio\\projects\\TellTaleHeartV7\\assets\\video\\scene_11_clip_18.mp4\u0022 -i \u0022C:\\Users\\budcr\\source\\repos\\FilmStudio\\projects\\TellTaleHeartV7\\assets\\video\\scene_11_clip_19.mp4\u0022 -i \u0022C:\\Users\\budcr\\source\\repos\\FilmStudio\\projects\\TellTaleHeartV7\\assets\\video\\scene_11_clip_20.mp4\u0022 -i \u0022C:\\Users\\budcr\\source\\repos\\FilmStudio\\projects\\TellTaleHeartV7\\assets\\video\\scene_11_clip_21.mp4\u0022 -i \u0022C:\\Users\\budcr\\source\\repos\\FilmStudio\\projects\\TellTaleHeartV7\\assets\\video\\scene_11_clip_22.mp4\u0022 -i \u0022C:\\Users\\budcr\\source\\repos\\FilmStudio\\projects\\TellTaleHeartV7\\assets\\video\\scene_11_clip_23.mp4\u0022 -i \u0022C:\\Users\\budcr\\source\\repos\\FilmStudio\\projects\\TellTaleHeartV7\\assets\\video\\scene_11_clip_24.mp4\u0022 -i \u0022C:\\Users\\budcr\\source\\repos\\FilmStudio\\projects\\TellTaleHeartV7\\assets\\video\\scene_11_clip_25.mp4\u0022 -i \u0022C:\\Users\\budcr\\source\\repos\\FilmStudio\\projects\\TellTaleHeartV7\\assets\\video\\scene_11_clip_26.mp4\u0022 -i \u0022C:\\Users\\budcr\\source\\repos\\FilmStudio\\projects\\TellTaleHeartV7\\assets\\video\\scene_11_clip_27.mp4\u0022 -i \u0022C:\\Users\\budcr\\source\\repos\\FilmStudio\\projects\\TellTaleHeartV7\\assets\\video\\scene_11_clip_28.mp4\u0022 -i \u0022C:\\Users\\budcr\\source\\repos\\FilmStudio\\projects\\TellTaleHeartV7\\assets\\video\\scene_11_clip_29.mp4\u0022 -i \u0022C:\\Users\\budcr\\source\\repos\\FilmStudio\\projects\\TellTaleHeartV7\\assets\\video\\scene_11_clip_30.mp4\u0022 -i \u0022C:\\Users\\budcr\\source\\repos\\FilmStudio\\projects\\TellTaleHeartV7\\assets\\video\\scene_11_clip_31.mp4\u0022 -i \u0022C:\\Users\\budcr\\source\\repos\\FilmStudio\\projects\\TellTaleHeartV7\\assets\\video\\scene_11_clip_32.mp4\u0022 -i \u0022C:\\Users\\budcr\\source\\repos\\FilmStudio\\projects\\TellTaleHeartV7\\assets\\video\\scene_11_clip_33.mp4\u0022 -i \u0022C:\\Users\\budcr\\source\\repos\\FilmStudio\\projects\\TellTaleHeartV7\\assets\\video\\scene_11_clip_34.mp4\u0022 -filter_complex \u0022[0:v][0:a][1:v][1:a][2:v][2:a][3:v][3:a][4:v][4:a][5:v][5:a][6:v][6:a][7:v][7:a][8:v][8:a][9:v][9:a][10:v][10:a][11:v][11:a][12:v][12:a][13:v][13:a][14:v][14:a][15:v][15:a][16:v][16:a][17:v][17:a][18:v][18:a][19:v][19:a][20:v][20:a][21:v][21:a][22:v][22:a][23:v][23:a][24:v][24:a][25:v][25:a][26:v][26:a][27:v][27:a][28:v][28:a][29:v][29:a][30:v][30:a][31:v][31:a][32:v][32:a][33:v][33:a]concat=n=34:v=1:a=1[v][a]\u0022 -map \u0022[v]\u2026","output":"C:\\Users\\budcr\\source\\repos\\FilmStudio\\projects\\TellTaleHeartV7\\assets\\video\\scene_11.mp4","exitCode":0,"timedOut":false,"wallMs":27738,"ffmpegPath":"C:\\Users\\budcr\\source\\repos\\FilmStudio\\host\\FilmStudio.Api\\bin\\Debug\\net10.0\\Resources\\ffmpeg.exe","scene":11,"includedCount":34,"excludedCount":0,"progress":["out_time=00:00:00.708333","out_time=00:03:18.541667"],"stats":{"lastTime":"out_time=00:03:18.541667","lastSpeed":"speed=7.71x"},"ok":true}
{"ts":"2026-07-23T23:03:34.72926+00:00","projectId":"TellTaleHeartV7","op":"S12 concat","args":"-hide_banner -loglevel info -progress pipe:1 -nostats -y -i \u0022C:\\Users\\budcr\\source\\repos\\FilmStudio\\projects\\TellTaleHeartV7\\assets\\video\\scene_12_clip_01.mp4\u0022 -i \u0022C:\\Users\\budcr\\source\\repos\\FilmStudio\\projects\\TellTaleHeartV7\\assets\\video\\scene_12_clip_02.mp4\u0022 -i \u0022C:\\Users\\budcr\\source\\repos\\FilmStudio\\projects\\TellTaleHeartV7\\assets\\video\\scene_12_clip_03.mp4\u0022 -filter_complex \u0022[0:v][0:a][1:v][1:a][2:v][2:a]concat=n=3:v=1:a=1[v][a]\u0022 -map \u0022[v]\u0022 -map \u0022[a]\u0022 -c:v libx264 -preset veryfast -crf 20 -c:a aac -b:a 160k -movflags \u002Bfaststart \u0022C:\\Users\\budcr\\source\\repos\\FilmStudio\\projects\\TellTaleHeartV7\\assets\\video\\scene_12.mp4\u0022","output":"C:\\Users\\budcr\\source\\repos\\FilmStudio\\projects\\TellTaleHeartV7\\assets\\video\\scene_12.mp4","exitCode":0,"timedOut":false,"wallMs":1881,"ffmpegPath":"C:\\Users\\budcr\\source\\repos\\FilmStudio\\host\\FilmStudio.Api\\bin\\Debug\\net10.0\\Resources\\ffmpeg.exe","scene":12,"includedCount":3,"excludedCount":0,"progress":["out_time=00:00:03.625000","out_time=00:00:14.958333"],"stats":{"lastTime":"out_time=00:00:14.958333","lastSpeed":"speed= 9.6x"},"ok":true}
{"ts":"2026-07-23T23:03:42.4747415+00:00","projectId":"TellTaleHeartV7","op":"S13 concat","args":"-hide_banner -loglevel info -progress pipe:1 -nostats -y -i \u0022C:\\Users\\budcr\\source\\repos\\FilmStudio\\projects\\TellTaleHeartV7\\assets\\video\\scene_13_clip_01.mp4\u0022 -i \u0022C:\\Users\\budcr\\source\\repos\\FilmStudio\\projects\\TellTaleHeartV7\\assets\\video\\scene_13_clip_02.mp4\u0022 -i \u0022C:\\Users\\budcr\\source\\repos\\FilmStudio\\projects\\TellTaleHeartV7\\assets\\video\\scene_13_clip_03.mp4\u0022 -i \u0022C:\\Users\\budcr\\source\\repos\\FilmStudio\\projects\\TellTaleHeartV7\\assets\\video\\scene_13_clip_04.mp4\u0022 -i \u0022C:\\Users\\budcr\\source\\repos\\FilmStudio\\projects\\TellTaleHeartV7\\assets\\video\\scene_13_clip_05.mp4\u0022 -i \u0022C:\\Users\\budcr\\source\\repos\\FilmStudio\\projects\\TellTaleHeartV7\\assets\\video\\scene_13_clip_06.mp4\u0022 -i \u0022C:\\Users\\budcr\\source\\repos\\FilmStudio\\projects\\TellTaleHeartV7\\assets\\video\\scene_13_clip_07.mp4\u0022 -i \u0022C:\\Users\\budcr\\source\\repos\\FilmStudio\\projects\\TellTaleHeartV7\\assets\\video\\scene_13_clip_08.mp4\u0022 -i \u0022C:\\Users\\budcr\\source\\repos\\FilmStudio\\projects\\TellTaleHeartV7\\assets\\video\\scene_13_clip_09.mp4\u0022 -filter_complex \u0022[0:v][0:a][1:v][1:a][2:v][2:a][3:v][3:a][4:v][4:a][5:v][5:a][6:v][6:a][7:v][7:a][8:v][8:a]concat=n=9:v=1:a=1[v][a]\u0022 -map \u0022[v]\u0022 -map \u0022[a]\u0022 -c:v libx264 -preset veryfast -crf 20 -c:a aac -b:a 160k -movflags \u002Bfaststart \u0022C:\\Users\\budcr\\source\\repos\\FilmStudio\\projects\\TellTaleHeartV7\\assets\\video\\scene_13.mp4\u0022","output":"C:\\Users\\budcr\\source\\repos\\FilmStudio\\projects\\TellTaleHeartV7\\assets\\video\\scene_13.mp4","exitCode":0,"timedOut":false,"wallMs":6100,"ffmpegPath":"C:\\Users\\budcr\\source\\repos\\FilmStudio\\host\\FilmStudio.Api\\bin\\Debug\\net10.0\\Resources\\ffmpeg.exe","scene":13,"includedCount":9,"excludedCount":0,"progress":["out_time=00:00:00.708333","out_time=00:00:47.610340"],"stats":{"lastTime":"out_time=00:00:47.610340","lastSpeed":"speed=8.58x"},"ok":true}
{"ts":"2026-07-23T23:03:46.7522747+00:00","projectId":"TellTaleHeartV7","op":"S14 concat","args":"-hide_banner -loglevel info -progress pipe:1 -nostats -y -i \u0022C:\\Users\\budcr\\source\\repos\\FilmStudio\\projects\\TellTaleHeartV7\\assets\\video\\scene_14_clip_01.mp4\u0022 -i \u0022C:\\Users\\budcr\\source\\repos\\FilmStudio\\projects\\TellTaleHeartV7\\assets\\video\\scene_14_clip_02.mp4\u0022 -i \u0022C:\\Users\\budcr\\source\\repos\\FilmStudio\\projects\\TellTaleHeartV7\\assets\\video\\scene_14_clip_03.mp4\u0022 -i \u0022C:\\Users\\budcr\\source\\repos\\FilmStudio\\projects\\TellTaleHeartV7\\assets\\video\\scene_14_clip_04.mp4\u0022 -i \u0022C:\\Users\\budcr\\source\\repos\\FilmStudio\\projects\\TellTaleHeartV7\\assets\\video\\scene_14_clip_05.mp4\u0022 -filter_complex \u0022[0:v][0:a][1:v][1:a][2:v][2:a][3:v][3:a][4:v][4:a]concat=n=5:v=1:a=1[v][a]\u0022 -map \u0022[v]\u0022 -map \u0022[a]\u0022 -c:v libx264 -preset veryfast -crf 20 -c:a aac -b:a 160k -movflags \u002Bfaststart \u0022C:\\Users\\budcr\\source\\repos\\FilmStudio\\projects\\TellTaleHeartV7\\assets\\video\\scene_14.mp4\u0022","output":"C:\\Users\\budcr\\source\\repos\\FilmStudio\\projects\\TellTaleHeartV7\\assets\\video\\scene_14.mp4","exitCode":0,"timedOut":false,"wallMs":3280,"ffmpegPath":"C:\\Users\\budcr\\source\\repos\\FilmStudio\\host\\FilmStudio.Api\\bin\\Debug\\net10.0\\Resources\\ffmpeg.exe","scene":14,"includedCount":5,"excludedCount":0,"progress":["out_time=00:00:01.291667","frame=  555 fps=193 q=-1.0 Lsize=    2096KiB time=00:00:23.04 bitrate= 745.2kbits/s speed=8.01x elapsed=0:00:02.87"],"stats":{"lastTime":"frame=  555 fps=193 q=-1.0 Lsize=    2096KiB time=00:00:23.04 bitrate= 745.2kbits/s speed=8.01x elapsed=0:00:02.87","lastSpeed":"speed=8.01x"},"ok":true}
{"ts":"2026-07-23T23:03:49.6084317+00:00","projectId":"TellTaleHeartV7","op":"S15 concat","args":"-hide_banner -loglevel info -progress pipe:1 -nostats -y -i \u0022C:\\Users\\budcr\\source\\repos\\FilmStudio\\projects\\TellTaleHeartV7\\assets\\video\\scene_15_clip_01.mp4\u0022 -i \u0022C:\\Users\\budcr\\source\\repos\\FilmStudio\\projects\\TellTaleHeartV7\\assets\\video\\scene_15_clip_02.mp4\u0022 -filter_complex \u0022[0:v][0:a][1:v][1:a]concat=n=2:v=1:a=1[v][a]\u0022 -map \u0022[v]\u0022 -map \u0022[a]\u0022 -c:v libx264 -preset veryfast -crf 20 -c:a aac -b:a 160k -movflags \u002Bfaststart \u0022C:\\Users\\budcr\\source\\repos\\FilmStudio\\projects\\TellTaleHeartV7\\assets\\video\\scene_15.mp4\u0022","output":"C:\\Users\\budcr\\source\\repos\\FilmStudio\\projects\\TellTaleHeartV7\\assets\\video\\scene_15.mp4","exitCode":0,"timedOut":false,"wallMs":2101,"ffmpegPath":"C:\\Users\\budcr\\source\\repos\\FilmStudio\\host\\FilmStudio.Api\\bin\\Debug\\net10.0\\Resources\\ffmpeg.exe","scene":15,"includedCount":2,"excludedCount":0,"progress":["out_time=00:00:02.125000","frame=  344 fps=196 q=-1.0 Lsize=    1937KiB time=00:00:14.25 bitrate=1113.6kbits/s speed=8.14x elapsed=0:00:01.75"],"stats":{"lastTime":"frame=  344 fps=196 q=-1.0 Lsize=    1937KiB time=00:00:14.25 bitrate=1113.6kbits/s speed=8.14x elapsed=0:00:01.75","lastSpeed":"speed=8.14x"},"ok":true}
{"ts":"2026-07-23T23:04:15.8709545+00:00","projectId":"TellTaleHeartV7","op":"S16 concat","args":"-hide_banner -loglevel info -progress pipe:1 -nostats -y -i \u0022C:\\Users\\budcr\\source\\repos\\FilmStudio\\projects\\TellTaleHeartV7\\assets\\video\\scene_16_clip_01.mp4\u0022 -i \u0022C:\\Users\\budcr\\source\\repos\\FilmStudio\\projects\\TellTaleHeartV7\\assets\\video\\scene_16_clip_02.mp4\u0022 -i \u0022C:\\Users\\budcr\\source\\repos\\FilmStudio\\projects\\TellTaleHeartV7\\assets\\video\\scene_16_clip_03.mp4\u0022 -i \u0022C:\\Users\\budcr\\source\\repos\\FilmStudio\\projects\\TellTaleHeartV7\\assets\\video\\scene_16_clip_04.mp4\u0022 -i \u0022C:\\Users\\budcr\\source\\repos\\FilmStudio\\projects\\TellTaleHeartV7\\assets\\video\\scene_16_clip_05.mp4\u0022 -i \u0022C:\\Users\\budcr\\source\\repos\\FilmStudio\\projects\\TellTaleHeartV7\\assets\\video\\scene_16_clip_06.mp4\u0022 -i \u0022C:\\Users\\budcr\\source\\repos\\FilmStudio\\projects\\TellTaleHeartV7\\assets\\video\\scene_16_clip_07.mp4\u0022 -i \u0022C:\\Users\\budcr\\source\\repos\\FilmStudio\\projects\\TellTaleHeartV7\\assets\\video\\scene_16_clip_08.mp4\u0022 -i \u0022C:\\Users\\budcr\\source\\repos\\FilmStudio\\projects\\TellTaleHeartV7\\assets\\video\\scene_16_clip_09.mp4\u0022 -i \u0022C:\\Users\\budcr\\source\\repos\\FilmStudio\\projects\\TellTaleHeartV7\\assets\\video\\scene_16_clip_10.mp4\u0022 -i \u0022C:\\Users\\budcr\\source\\repos\\FilmStudio\\projects\\TellTaleHeartV7\\assets\\video\\scene_16_clip_11.mp4\u0022 -i \u0022C:\\Users\\budcr\\source\\repos\\FilmStudio\\projects\\TellTaleHeartV7\\assets\\video\\scene_16_clip_12.mp4\u0022 -i \u0022C:\\Users\\budcr\\source\\repos\\FilmStudio\\projects\\TellTaleHeartV7\\assets\\video\\scene_16_clip_13.mp4\u0022 -i \u0022C:\\Users\\budcr\\source\\repos\\FilmStudio\\projects\\TellTaleHeartV7\\assets\\video\\scene_16_clip_14.mp4\u0022 -i \u0022C:\\Users\\budcr\\source\\repos\\FilmStudio\\projects\\TellTaleHeartV7\\assets\\video\\scene_16_clip_15.mp4\u0022 -i \u0022C:\\Users\\budcr\\source\\repos\\FilmStudio\\projects\\TellTaleHeartV7\\assets\\video\\scene_16_clip_16.mp4\u0022 -i \u0022C:\\Users\\budcr\\source\\repos\\FilmStudio\\projects\\TellTaleHeartV7\\assets\\video\\scene_16_clip_17.mp4\u0022 -i \u0022C:\\Users\\budcr\\source\\repos\\FilmStudio\\projects\\TellTaleHeartV7\\assets\\video\\scene_16_clip_18.mp4\u0022 -i \u0022C:\\Users\\budcr\\source\\repos\\FilmStudio\\projects\\TellTaleHeartV7\\assets\\video\\scene_16_clip_19.mp4\u0022 -i \u0022C:\\Users\\budcr\\source\\repos\\FilmStudio\\projects\\TellTaleHeartV7\\assets\\video\\scene_16_clip_20.mp4\u0022 -i \u0022C:\\Users\\budcr\\source\\repos\\FilmStudio\\projects\\TellTaleHeartV7\\assets\\video\\scene_16_clip_21.mp4\u0022 -i \u0022C:\\Users\\budcr\\source\\repos\\FilmStudio\\projects\\TellTaleHeartV7\\assets\\video\\scene_16_clip_22.mp4\u0022 -i \u0022C:\\Users\\budcr\\source\\repos\\FilmStudio\\projects\\TellTaleHeartV7\\assets\\video\\scene_16_clip_23.mp4\u0022 -i \u0022C:\\Users\\budcr\\source\\repos\\FilmStudio\\projects\\TellTaleHeartV7\\assets\\video\\scene_16_clip_24.mp4\u0022 -i \u0022C:\\Users\\budcr\\source\\repos\\FilmStudio\\projects\\TellTaleHeartV7\\assets\\video\\scene_16_clip_25.mp4\u0022 -i \u0022C:\\Users\\budcr\\source\\repos\\FilmStudio\\projects\\TellTaleHeartV7\\assets\\video\\scene_16_clip_26.mp4\u0022 -i \u0022C:\\Users\\budcr\\source\\repos\\FilmStudio\\projects\\TellTaleHeartV7\\assets\\video\\scene_16_clip_27.mp4\u0022 -i \u0022C:\\Users\\budcr\\source\\repos\\FilmStudio\\projects\\TellTaleHeartV7\\assets\\video\\scene_16_clip_28.mp4\u0022 -i \u0022C:\\Users\\budcr\\source\\repos\\FilmStudio\\projects\\TellTaleHeartV7\\assets\\video\\scene_16_clip_29.mp4\u0022 -i \u0022C:\\Users\\budcr\\source\\repos\\FilmStudio\\projects\\TellTaleHeartV7\\assets\\video\\scene_16_clip_30.mp4\u0022 -i \u0022C:\\Users\\budcr\\source\\repos\\FilmStudio\\projects\\TellTaleHeartV7\\assets\\video\\scene_16_clip_31.mp4\u0022 -i \u0022C:\\Users\\budcr\\source\\repos\\FilmStudio\\projects\\TellTaleHeartV7\\assets\\video\\scene_16_clip_32.mp4\u0022 -filter_complex \u0022[0:v][0:a][1:v][1:a][2:v][2:a][3:v][3:a][4:v][4:a][5:v][5:a][6:v][6:a][7:v][7:a][8:v][8:a][9:v][9:a][10:v][10:a][11:v][11:a][12:v][12:a][13:v][13:a][14:v][14:a][15:v][15:a][16:v][16:a][17:v][17:a][18:v][18:a][19:v][19:a][20:v][20:a][21:v][21:a][22:v][22:a][23:v][23:a][24:v][24:a][25:v][25:a][26:v][26:a][27:v][27:a][28:v][28:a][29:v][29:a][30:v][30:a][31:v][31:a]concat=n=32:v=1:a=1[v][a]\u0022 -map \u0022[v]\u0022 -map \u0022[a]\u0022 -c:v libx264 -preset veryfast -crf 20 -c:a aac -b:a 160k -movflags \u002Bfaststart \u0022C:\\Users\\budcr\\source\\repos\\FilmStudio\\projects\\TellTaleHeartV7\\assets\\video\\scene_16.mp4\u0022","output":"C:\\Users\\budcr\\source\\repos\\FilmStudio\\projects\\TellTaleHeartV7\\assets\\video\\scene_16.mp4","exitCode":0,"timedOut":false,"wallMs":21336,"ffmpegPath":"C:\\Users\\budcr\\source\\repos\\FilmStudio\\host\\FilmStudio.Api\\bin\\Debug\\net10.0\\Resources\\ffmpeg.exe","scene":16,"includedCount":32,"excludedCount":0,"progress":["out_time=00:00:01.041667","out_time=00:02:56.541667"],"stats":{"lastTime":"out_time=00:02:56.541667","lastSpeed":"speed=8.85x"},"ok":true}
{"ts":"2026-07-23T23:04:18.5292891+00:00","projectId":"TellTaleHeartV7","op":"S17 concat","args":"-hide_banner -loglevel info -progress pipe:1 -nostats -y -i \u0022C:\\Users\\budcr\\source\\repos\\FilmStudio\\projects\\TellTaleHeartV7\\assets\\video\\scene_17_clip_01.mp4\u0022 -i \u0022C:\\Users\\budcr\\source\\repos\\FilmStudio\\projects\\TellTaleHeartV7\\assets\\video\\scene_17_clip_02.mp4\u0022 -i \u0022C:\\Users\\budcr\\source\\repos\\FilmStudio\\projects\\TellTaleHeartV7\\assets\\video\\scene_17_clip_03.mp4\u0022 -filter_complex \u0022[0:v][0:a][1:v][1:a][2:v][2:a]concat=n=3:v=1:a=1[v][a]\u0022 -map \u0022[v]\u0022 -map \u0022[a]\u0022 -c:v libx264 -preset veryfast -crf 20 -c:a aac -b:a 160k -movflags \u002Bfaststart \u0022C:\\Users\\budcr\\source\\repos\\FilmStudio\\projects\\TellTaleHeartV7\\assets\\video\\scene_17.mp4\u0022","output":"C:\\Users\\budcr\\source\\repos\\FilmStudio\\projects\\TellTaleHeartV7\\assets\\video\\scene_17.mp4","exitCode":0,"timedOut":false,"wallMs":1797,"ffmpegPath":"C:\\Users\\budcr\\source\\repos\\FilmStudio\\host\\FilmStudio.Api\\bin\\Debug\\net10.0\\Resources\\ffmpeg.exe","scene":17,"includedCount":3,"excludedCount":0,"progress":["out_time=00:00:02.208333","out_time=00:00:13.328254"],"stats":{"lastTime":"out_time=00:00:13.328254","lastSpeed":"speed= 9.1x"},"ok":true}
{"ts":"2026-07-23T23:23:12.1766909+00:00","projectId":"TellTaleHeartV7","op":"WIP concat","args":"-hide_banner -loglevel info -progress pipe:1 -nostats -y -i \u0022C:\\Users\\budcr\\source\\repos\\FilmStudio\\projects\\TellTaleHeartV7\\assets\\video\\scene_01.mp4\u0022 -i \u0022C:\\Users\\budcr\\source\\repos\\FilmStudio\\projects\\TellTaleHeartV7\\assets\\video\\scene_02.mp4\u0022 -i \u0022C:\\Users\\budcr\\source\\repos\\FilmStudio\\projects\\TellTaleHeartV7\\assets\\video\\scene_03.mp4\u0022 -i \u0022C:\\Users\\budcr\\source\\repos\\FilmStudio\\projects\\TellTaleHeartV7\\assets\\video\\scene_04.mp4\u0022 -i \u0022C:\\Users\\budcr\\source\\repos\\FilmStudio\\projects\\TellTaleHeartV7\\assets\\video\\scene_05.mp4\u0022 -i \u0022C:\\Users\\budcr\\source\\repos\\FilmStudio\\projects\\TellTaleHeartV7\\assets\\video\\scene_06.mp4\u0022 -i \u0022C:\\Users\\budcr\\source\\repos\\FilmStudio\\projects\\TellTaleHeartV7\\assets\\video\\scene_07.mp4\u0022 -i \u0022C:\\Users\\budcr\\source\\repos\\FilmStudio\\projects\\TellTaleHeartV7\\assets\\video\\scene_08.mp4\u0022 -i \u0022C:\\Users\\budcr\\source\\repos\\FilmStudio\\projects\\TellTaleHeartV7\\assets\\video\\scene_09.mp4\u0022 -i \u0022C:\\Users\\budcr\\source\\repos\\FilmStudio\\projects\\TellTaleHeartV7\\assets\\video\\scene_10.mp4\u0022 -i \u0022C:\\Users\\budcr\\source\\repos\\FilmStudio\\projects\\TellTaleHeartV7\\assets\\video\\scene_11.mp4\u0022 -i \u0022C:\\Users\\budcr\\source\\repos\\FilmStudio\\projects\\TellTaleHeartV7\\assets\\video\\scene_12.mp4\u0022 -i \u0022C:\\Users\\budcr\\source\\repos\\FilmStudio\\projects\\TellTaleHeartV7\\assets\\video\\scene_13.mp4\u0022 -i \u0022C:\\Users\\budcr\\source\\repos\\FilmStudio\\projects\\TellTaleHeartV7\\assets\\video\\scene_14.mp4\u0022 -i \u0022C:\\Users\\budcr\\source\\repos\\FilmStudio\\projects\\TellTaleHeartV7\\assets\\video\\scene_15.mp4\u0022 -i \u0022C:\\Users\\budcr\\source\\repos\\FilmStudio\\projects\\TellTaleHeartV7\\assets\\video\\scene_16.mp4\u0022 -i \u0022C:\\Users\\budcr\\source\\repos\\FilmStudio\\projects\\TellTaleHeartV7\\assets\\video\\scene_17.mp4\u0022 -filter_complex \u0022[0:v][0:a][1:v][1:a][2:v][2:a][3:v][3:a][4:v][4:a][5:v][5:a][6:v][6:a][7:v][7:a][8:v][8:a][9:v][9:a][10:v][10:a][11:v][11:a][12:v][12:a][13:v][13:a][14:v][14:a][15:v][15:a][16:v][16:a]concat=n=17:v=1:a=1[v][a]\u0022 -map \u0022[v]\u0022 -map \u0022[a]\u0022 -c:v libx264 -preset veryfast -crf 20 -c:a aac -b:a 160k -movflags \u002Bfaststart \u0022C:\\Users\\budcr\\source\\repos\\FilmStudio\\projects\\TellTaleHeartV7\\assets\\movie_wip.mp4\u0022","output":"C:\\Users\\budcr\\source\\repos\\FilmStudio\\projects\\TellTaleHeartV7\\assets\\movie_wip.mp4","exitCode":0,"timedOut":false,"wallMs":56451,"ffmpegPath":"C:\\Users\\budcr\\source\\repos\\FilmStudio\\host\\FilmStudio.Api\\bin\\Debug\\net10.0\\Resources\\ffmpeg.exe","progress":["out_time=00:00:01.958333","frame=21616 fps=387 q=-1.0 Lsize=   96472KiB time=00:15:01.60 bitrate= 876.5kbits/s speed=16.1x elapsed=0:00:55.86"],"stats":{"lastTime":"frame=21616 fps=387 q=-1.0 Lsize=   96472KiB time=00:15:01.60 bitrate= 876.5kbits/s speed=16.1x elapsed=0:00:55.86","lastSpeed":"speed=16.1x"},"ok":true}
